%TF.GenerationSoftware,KiCad,Pcbnew,7.0.1-0*%
%TF.CreationDate,2023-04-21T23:39:25-07:00*%
%TF.ProjectId,Lab 2,4c616220-322e-46b6-9963-61645f706362,rev?*%
%TF.SameCoordinates,Original*%
%TF.FileFunction,Copper,L1,Top*%
%TF.FilePolarity,Positive*%
%FSLAX46Y46*%
G04 Gerber Fmt 4.6, Leading zero omitted, Abs format (unit mm)*
G04 Created by KiCad (PCBNEW 7.0.1-0) date 2023-04-21 23:39:25*
%MOMM*%
%LPD*%
G01*
G04 APERTURE LIST*
G04 Aperture macros list*
%AMRoundRect*
0 Rectangle with rounded corners*
0 $1 Rounding radius*
0 $2 $3 $4 $5 $6 $7 $8 $9 X,Y pos of 4 corners*
0 Add a 4 corners polygon primitive as box body*
4,1,4,$2,$3,$4,$5,$6,$7,$8,$9,$2,$3,0*
0 Add four circle primitives for the rounded corners*
1,1,$1+$1,$2,$3*
1,1,$1+$1,$4,$5*
1,1,$1+$1,$6,$7*
1,1,$1+$1,$8,$9*
0 Add four rect primitives between the rounded corners*
20,1,$1+$1,$2,$3,$4,$5,0*
20,1,$1+$1,$4,$5,$6,$7,0*
20,1,$1+$1,$6,$7,$8,$9,0*
20,1,$1+$1,$8,$9,$2,$3,0*%
G04 Aperture macros list end*
%TA.AperFunction,SMDPad,CuDef*%
%ADD10RoundRect,0.250000X0.337500X0.475000X-0.337500X0.475000X-0.337500X-0.475000X0.337500X-0.475000X0*%
%TD*%
%TA.AperFunction,SMDPad,CuDef*%
%ADD11RoundRect,0.250000X0.350000X0.450000X-0.350000X0.450000X-0.350000X-0.450000X0.350000X-0.450000X0*%
%TD*%
%TA.AperFunction,ComponentPad*%
%ADD12C,3.000000*%
%TD*%
%TA.AperFunction,ComponentPad*%
%ADD13R,3.000000X3.000000*%
%TD*%
%TA.AperFunction,SMDPad,CuDef*%
%ADD14RoundRect,0.250000X0.450000X-0.350000X0.450000X0.350000X-0.450000X0.350000X-0.450000X-0.350000X0*%
%TD*%
%TA.AperFunction,SMDPad,CuDef*%
%ADD15RoundRect,0.250001X0.462499X0.624999X-0.462499X0.624999X-0.462499X-0.624999X0.462499X-0.624999X0*%
%TD*%
%TA.AperFunction,SMDPad,CuDef*%
%ADD16RoundRect,0.250001X-0.624999X0.462499X-0.624999X-0.462499X0.624999X-0.462499X0.624999X0.462499X0*%
%TD*%
%TA.AperFunction,SMDPad,CuDef*%
%ADD17RoundRect,0.250000X-0.350000X-0.450000X0.350000X-0.450000X0.350000X0.450000X-0.350000X0.450000X0*%
%TD*%
%TA.AperFunction,SMDPad,CuDef*%
%ADD18RoundRect,0.250000X0.425000X-0.537500X0.425000X0.537500X-0.425000X0.537500X-0.425000X-0.537500X0*%
%TD*%
%TA.AperFunction,SMDPad,CuDef*%
%ADD19RoundRect,0.150000X0.825000X0.150000X-0.825000X0.150000X-0.825000X-0.150000X0.825000X-0.150000X0*%
%TD*%
%TA.AperFunction,SMDPad,CuDef*%
%ADD20R,2.290000X3.000000*%
%TD*%
%TA.AperFunction,ViaPad*%
%ADD21C,0.800000*%
%TD*%
%TA.AperFunction,Conductor*%
%ADD22C,0.250000*%
%TD*%
G04 APERTURE END LIST*
D10*
%TO.P,C2,1*%
%TO.N,N/C*%
X141491240Y-85460000D03*
%TO.P,C2,2*%
X139416240Y-85460000D03*
%TD*%
D11*
%TO.P,R1,1*%
%TO.N,N/C*%
X150860000Y-104140000D03*
%TO.P,R1,2*%
X148860000Y-104140000D03*
%TD*%
D12*
%TO.P,J1,2,Pin_2*%
%TO.N,N/C*%
X152400000Y-96520000D03*
D13*
%TO.P,J1,1,Pin_1*%
X157480000Y-96520000D03*
%TD*%
D14*
%TO.P,R2,1*%
%TO.N,N/C*%
X132071192Y-95581192D03*
%TO.P,R2,2*%
X132071192Y-93581192D03*
%TD*%
D15*
%TO.P,D2,1,K*%
%TO.N,N/C*%
X137212500Y-85280000D03*
%TO.P,D2,2,A*%
X134237500Y-85280000D03*
%TD*%
D16*
%TO.P,D1,1,K*%
%TO.N,N/C*%
X128155000Y-95032500D03*
%TO.P,D1,2,A*%
X128155000Y-98007500D03*
%TD*%
D14*
%TO.P,R3,1*%
%TO.N,N/C*%
X128250000Y-91354128D03*
%TO.P,R3,2*%
X128250000Y-89354128D03*
%TD*%
D17*
%TO.P,R4,1*%
%TO.N,N/C*%
X127858808Y-85365000D03*
%TO.P,R4,2*%
X129858808Y-85365000D03*
%TD*%
D18*
%TO.P,C1,1*%
%TO.N,N/C*%
X144780000Y-91440000D03*
%TO.P,C1,2*%
X144780000Y-88565000D03*
%TD*%
D19*
%TO.P,U1,1,GND*%
%TO.N,N/C*%
X141257500Y-98425000D03*
%TO.P,U1,2,TR*%
X141257500Y-97155000D03*
%TO.P,U1,3,Q*%
X141257500Y-95885000D03*
%TO.P,U1,4,R*%
X141257500Y-94615000D03*
%TO.P,U1,5,CV*%
X136307500Y-94615000D03*
%TO.P,U1,6,THR*%
X136307500Y-95885000D03*
%TO.P,U1,7,DIS*%
X136307500Y-97155000D03*
%TO.P,U1,8,VCC*%
X136307500Y-98425000D03*
D20*
%TO.P,U1,9*%
X138782500Y-96520000D03*
%TD*%
D21*
%TO.N,*%
X143510000Y-97028000D03*
X144780000Y-92964000D03*
X134366000Y-95758000D03*
X145542000Y-104140000D03*
X128250000Y-87904000D03*
X143256000Y-94742000D03*
X142240000Y-93218000D03*
X139954000Y-89408000D03*
X134239000Y-97155000D03*
X144907000Y-95885000D03*
X141224000Y-92710000D03*
X130683000Y-98425000D03*
X150876000Y-103124000D03*
X149225000Y-93345000D03*
X144145000Y-98425000D03*
%TD*%
D22*
%TO.N,*%
X152400000Y-96520000D02*
X149225000Y-93345000D01*
X139954000Y-89408000D02*
X142240000Y-91694000D01*
X149225000Y-93345000D02*
X144780000Y-88900000D01*
X142856240Y-88900000D02*
X139416240Y-85460000D01*
X132071192Y-93581192D02*
X132189192Y-93581192D01*
X144780000Y-88900000D02*
X142856240Y-88900000D01*
X144780000Y-91440000D02*
X144780000Y-92964000D01*
X139236240Y-85280000D02*
X139416240Y-85460000D01*
X134493000Y-95885000D02*
X136307500Y-95885000D01*
X137212500Y-85280000D02*
X139236240Y-85280000D01*
X134366000Y-95758000D02*
X134493000Y-95885000D01*
X142240000Y-91694000D02*
X142240000Y-93218000D01*
X141491240Y-85460000D02*
X140111240Y-84080000D01*
X136175000Y-94482500D02*
X136307500Y-94615000D01*
X136175000Y-84416828D02*
X136175000Y-94482500D01*
X140111240Y-84080000D02*
X136511828Y-84080000D01*
X136511828Y-84080000D02*
X136175000Y-84416828D01*
X143383000Y-97155000D02*
X143510000Y-97028000D01*
X141257500Y-98425000D02*
X144145000Y-98425000D01*
X134152500Y-85365000D02*
X129858808Y-85365000D01*
X128250000Y-87904000D02*
X128250000Y-89354128D01*
X134237500Y-85280000D02*
X134152500Y-85365000D01*
X128250000Y-85756192D02*
X128250000Y-87904000D01*
X127858808Y-85365000D02*
X128250000Y-85756192D01*
X141257500Y-95885000D02*
X144907000Y-95885000D01*
X148860000Y-104140000D02*
X145542000Y-104140000D01*
X134239000Y-97155000D02*
X136307500Y-97155000D01*
X132665192Y-95581192D02*
X134239000Y-97155000D01*
X132071192Y-95581192D02*
X132665192Y-95581192D01*
X128250000Y-91354128D02*
X128155000Y-91449128D01*
X128155000Y-91449128D02*
X128155000Y-95032500D01*
X150860000Y-103140000D02*
X150860000Y-104140000D01*
X157480000Y-96520000D02*
X150876000Y-103124000D01*
X150876000Y-103124000D02*
X150860000Y-103140000D01*
X141257500Y-94615000D02*
X143129000Y-94615000D01*
X130683000Y-98425000D02*
X136307500Y-98425000D01*
X141257500Y-94615000D02*
X141257500Y-92743500D01*
X128155000Y-98007500D02*
X128572500Y-98425000D01*
X143256000Y-94742000D02*
X143129000Y-94615000D01*
X141257500Y-92743500D02*
X141224000Y-92710000D01*
X128572500Y-98425000D02*
X130683000Y-98425000D01*
X141257500Y-97155000D02*
X143383000Y-97155000D01*
X132189192Y-93581192D02*
X134366000Y-95758000D01*
%TD*%
M02*
