%TF.GenerationSoftware,KiCad,Pcbnew,7.0.1-0*%
%TF.CreationDate,2023-04-21T23:39:25-07:00*%
%TF.ProjectId,Lab 2,4c616220-322e-46b6-9963-61645f706362,rev?*%
%TF.SameCoordinates,Original*%
%TF.FileFunction,Legend,Top*%
%TF.FilePolarity,Positive*%
%FSLAX46Y46*%
G04 Gerber Fmt 4.6, Leading zero omitted, Abs format (unit mm)*
G04 Created by KiCad (PCBNEW 7.0.1-0) date 2023-04-21 23:39:25*
%MOMM*%
%LPD*%
G01*
G04 APERTURE LIST*
%ADD10C,0.125000*%
%ADD11C,0.150000*%
%ADD12C,0.120000*%
G04 APERTURE END LIST*
D10*
X152519047Y-103268809D02*
X152519047Y-102768809D01*
X152709523Y-102935476D02*
X152971428Y-102935476D01*
X152971428Y-102935476D02*
X152709523Y-103268809D01*
X152709523Y-103268809D02*
X152971428Y-103268809D01*
X153114285Y-102935476D02*
X153376190Y-102935476D01*
X153376190Y-102935476D02*
X153114285Y-103268809D01*
X153114285Y-103268809D02*
X153376190Y-103268809D01*
X153519047Y-102935476D02*
X153638095Y-103268809D01*
X153757142Y-102935476D02*
X153638095Y-103268809D01*
X153638095Y-103268809D02*
X153590476Y-103387857D01*
X153590476Y-103387857D02*
X153566666Y-103411666D01*
X153566666Y-103411666D02*
X153519047Y-103435476D01*
X154328570Y-103268809D02*
X154328570Y-102768809D01*
X154328570Y-102768809D02*
X154614284Y-103268809D01*
X154614284Y-103268809D02*
X154614284Y-102768809D01*
X155066666Y-102935476D02*
X155066666Y-103268809D01*
X154852380Y-102935476D02*
X154852380Y-103197380D01*
X154852380Y-103197380D02*
X154876190Y-103245000D01*
X154876190Y-103245000D02*
X154923809Y-103268809D01*
X154923809Y-103268809D02*
X154995237Y-103268809D01*
X154995237Y-103268809D02*
X155042856Y-103245000D01*
X155042856Y-103245000D02*
X155066666Y-103221190D01*
X155304761Y-103268809D02*
X155304761Y-102935476D01*
X155304761Y-103030714D02*
X155328571Y-102983095D01*
X155328571Y-102983095D02*
X155352380Y-102959285D01*
X155352380Y-102959285D02*
X155399999Y-102935476D01*
X155399999Y-102935476D02*
X155447618Y-102935476D01*
X155828571Y-103268809D02*
X155828571Y-102768809D01*
X155828571Y-103245000D02*
X155780952Y-103268809D01*
X155780952Y-103268809D02*
X155685714Y-103268809D01*
X155685714Y-103268809D02*
X155638095Y-103245000D01*
X155638095Y-103245000D02*
X155614285Y-103221190D01*
X155614285Y-103221190D02*
X155590476Y-103173571D01*
X155590476Y-103173571D02*
X155590476Y-103030714D01*
X155590476Y-103030714D02*
X155614285Y-102983095D01*
X155614285Y-102983095D02*
X155638095Y-102959285D01*
X155638095Y-102959285D02*
X155685714Y-102935476D01*
X155685714Y-102935476D02*
X155780952Y-102935476D01*
X155780952Y-102935476D02*
X155828571Y-102959285D01*
X156066666Y-103268809D02*
X156066666Y-102935476D01*
X156066666Y-102768809D02*
X156042857Y-102792619D01*
X156042857Y-102792619D02*
X156066666Y-102816428D01*
X156066666Y-102816428D02*
X156090476Y-102792619D01*
X156090476Y-102792619D02*
X156066666Y-102768809D01*
X156066666Y-102768809D02*
X156066666Y-102816428D01*
X156304761Y-102935476D02*
X156304761Y-103268809D01*
X156304761Y-102983095D02*
X156328571Y-102959285D01*
X156328571Y-102959285D02*
X156376190Y-102935476D01*
X156376190Y-102935476D02*
X156447618Y-102935476D01*
X156447618Y-102935476D02*
X156495237Y-102959285D01*
X156495237Y-102959285D02*
X156519047Y-103006904D01*
X156519047Y-103006904D02*
X156519047Y-103268809D01*
X156780952Y-103245000D02*
X156780952Y-103268809D01*
X156780952Y-103268809D02*
X156757142Y-103316428D01*
X156757142Y-103316428D02*
X156733333Y-103340238D01*
X152519047Y-104078809D02*
X152519047Y-103578809D01*
X152519047Y-103578809D02*
X152685714Y-103935952D01*
X152685714Y-103935952D02*
X152852380Y-103578809D01*
X152852380Y-103578809D02*
X152852380Y-104078809D01*
X153304762Y-103745476D02*
X153304762Y-104078809D01*
X153090476Y-103745476D02*
X153090476Y-104007380D01*
X153090476Y-104007380D02*
X153114286Y-104055000D01*
X153114286Y-104055000D02*
X153161905Y-104078809D01*
X153161905Y-104078809D02*
X153233333Y-104078809D01*
X153233333Y-104078809D02*
X153280952Y-104055000D01*
X153280952Y-104055000D02*
X153304762Y-104031190D01*
X153519048Y-104055000D02*
X153566667Y-104078809D01*
X153566667Y-104078809D02*
X153661905Y-104078809D01*
X153661905Y-104078809D02*
X153709524Y-104055000D01*
X153709524Y-104055000D02*
X153733333Y-104007380D01*
X153733333Y-104007380D02*
X153733333Y-103983571D01*
X153733333Y-103983571D02*
X153709524Y-103935952D01*
X153709524Y-103935952D02*
X153661905Y-103912142D01*
X153661905Y-103912142D02*
X153590476Y-103912142D01*
X153590476Y-103912142D02*
X153542857Y-103888333D01*
X153542857Y-103888333D02*
X153519048Y-103840714D01*
X153519048Y-103840714D02*
X153519048Y-103816904D01*
X153519048Y-103816904D02*
X153542857Y-103769285D01*
X153542857Y-103769285D02*
X153590476Y-103745476D01*
X153590476Y-103745476D02*
X153661905Y-103745476D01*
X153661905Y-103745476D02*
X153709524Y-103769285D01*
X153923810Y-104055000D02*
X153971429Y-104078809D01*
X153971429Y-104078809D02*
X154066667Y-104078809D01*
X154066667Y-104078809D02*
X154114286Y-104055000D01*
X154114286Y-104055000D02*
X154138095Y-104007380D01*
X154138095Y-104007380D02*
X154138095Y-103983571D01*
X154138095Y-103983571D02*
X154114286Y-103935952D01*
X154114286Y-103935952D02*
X154066667Y-103912142D01*
X154066667Y-103912142D02*
X153995238Y-103912142D01*
X153995238Y-103912142D02*
X153947619Y-103888333D01*
X153947619Y-103888333D02*
X153923810Y-103840714D01*
X153923810Y-103840714D02*
X153923810Y-103816904D01*
X153923810Y-103816904D02*
X153947619Y-103769285D01*
X153947619Y-103769285D02*
X153995238Y-103745476D01*
X153995238Y-103745476D02*
X154066667Y-103745476D01*
X154066667Y-103745476D02*
X154114286Y-103769285D01*
X154352381Y-104078809D02*
X154352381Y-103745476D01*
X154352381Y-103578809D02*
X154328572Y-103602619D01*
X154328572Y-103602619D02*
X154352381Y-103626428D01*
X154352381Y-103626428D02*
X154376191Y-103602619D01*
X154376191Y-103602619D02*
X154352381Y-103578809D01*
X154352381Y-103578809D02*
X154352381Y-103626428D01*
X154780952Y-104055000D02*
X154733333Y-104078809D01*
X154733333Y-104078809D02*
X154638095Y-104078809D01*
X154638095Y-104078809D02*
X154590476Y-104055000D01*
X154590476Y-104055000D02*
X154566667Y-104007380D01*
X154566667Y-104007380D02*
X154566667Y-103816904D01*
X154566667Y-103816904D02*
X154590476Y-103769285D01*
X154590476Y-103769285D02*
X154638095Y-103745476D01*
X154638095Y-103745476D02*
X154733333Y-103745476D01*
X154733333Y-103745476D02*
X154780952Y-103769285D01*
X154780952Y-103769285D02*
X154804762Y-103816904D01*
X154804762Y-103816904D02*
X154804762Y-103864523D01*
X154804762Y-103864523D02*
X154566667Y-103912142D01*
X155328571Y-103578809D02*
X155614285Y-103578809D01*
X155471428Y-104078809D02*
X155471428Y-103578809D01*
X155757142Y-104055000D02*
X155804761Y-104078809D01*
X155804761Y-104078809D02*
X155899999Y-104078809D01*
X155899999Y-104078809D02*
X155947618Y-104055000D01*
X155947618Y-104055000D02*
X155971427Y-104007380D01*
X155971427Y-104007380D02*
X155971427Y-103983571D01*
X155971427Y-103983571D02*
X155947618Y-103935952D01*
X155947618Y-103935952D02*
X155899999Y-103912142D01*
X155899999Y-103912142D02*
X155828570Y-103912142D01*
X155828570Y-103912142D02*
X155780951Y-103888333D01*
X155780951Y-103888333D02*
X155757142Y-103840714D01*
X155757142Y-103840714D02*
X155757142Y-103816904D01*
X155757142Y-103816904D02*
X155780951Y-103769285D01*
X155780951Y-103769285D02*
X155828570Y-103745476D01*
X155828570Y-103745476D02*
X155899999Y-103745476D01*
X155899999Y-103745476D02*
X155947618Y-103769285D01*
X156376189Y-104055000D02*
X156328570Y-104078809D01*
X156328570Y-104078809D02*
X156233332Y-104078809D01*
X156233332Y-104078809D02*
X156185713Y-104055000D01*
X156185713Y-104055000D02*
X156161904Y-104007380D01*
X156161904Y-104007380D02*
X156161904Y-103816904D01*
X156161904Y-103816904D02*
X156185713Y-103769285D01*
X156185713Y-103769285D02*
X156233332Y-103745476D01*
X156233332Y-103745476D02*
X156328570Y-103745476D01*
X156328570Y-103745476D02*
X156376189Y-103769285D01*
X156376189Y-103769285D02*
X156399999Y-103816904D01*
X156399999Y-103816904D02*
X156399999Y-103864523D01*
X156399999Y-103864523D02*
X156161904Y-103912142D01*
X156828570Y-103745476D02*
X156828570Y-104150238D01*
X156828570Y-104150238D02*
X156804760Y-104197857D01*
X156804760Y-104197857D02*
X156780951Y-104221666D01*
X156780951Y-104221666D02*
X156733332Y-104245476D01*
X156733332Y-104245476D02*
X156661903Y-104245476D01*
X156661903Y-104245476D02*
X156614284Y-104221666D01*
X156828570Y-104055000D02*
X156780951Y-104078809D01*
X156780951Y-104078809D02*
X156685713Y-104078809D01*
X156685713Y-104078809D02*
X156638094Y-104055000D01*
X156638094Y-104055000D02*
X156614284Y-104031190D01*
X156614284Y-104031190D02*
X156590475Y-103983571D01*
X156590475Y-103983571D02*
X156590475Y-103840714D01*
X156590475Y-103840714D02*
X156614284Y-103793095D01*
X156614284Y-103793095D02*
X156638094Y-103769285D01*
X156638094Y-103769285D02*
X156685713Y-103745476D01*
X156685713Y-103745476D02*
X156780951Y-103745476D01*
X156780951Y-103745476D02*
X156828570Y-103769285D01*
X157280951Y-104078809D02*
X157280951Y-103816904D01*
X157280951Y-103816904D02*
X157257141Y-103769285D01*
X157257141Y-103769285D02*
X157209522Y-103745476D01*
X157209522Y-103745476D02*
X157114284Y-103745476D01*
X157114284Y-103745476D02*
X157066665Y-103769285D01*
X157280951Y-104055000D02*
X157233332Y-104078809D01*
X157233332Y-104078809D02*
X157114284Y-104078809D01*
X157114284Y-104078809D02*
X157066665Y-104055000D01*
X157066665Y-104055000D02*
X157042856Y-104007380D01*
X157042856Y-104007380D02*
X157042856Y-103959761D01*
X157042856Y-103959761D02*
X157066665Y-103912142D01*
X157066665Y-103912142D02*
X157114284Y-103888333D01*
X157114284Y-103888333D02*
X157233332Y-103888333D01*
X157233332Y-103888333D02*
X157280951Y-103864523D01*
X157471427Y-103745476D02*
X157590475Y-104078809D01*
X157709522Y-103745476D02*
X157590475Y-104078809D01*
X157590475Y-104078809D02*
X157542856Y-104197857D01*
X157542856Y-104197857D02*
X157519046Y-104221666D01*
X157519046Y-104221666D02*
X157471427Y-104245476D01*
D11*
%TO.C,C2*%
X140287073Y-87507380D02*
X140239454Y-87555000D01*
X140239454Y-87555000D02*
X140096597Y-87602619D01*
X140096597Y-87602619D02*
X140001359Y-87602619D01*
X140001359Y-87602619D02*
X139858502Y-87555000D01*
X139858502Y-87555000D02*
X139763264Y-87459761D01*
X139763264Y-87459761D02*
X139715645Y-87364523D01*
X139715645Y-87364523D02*
X139668026Y-87174047D01*
X139668026Y-87174047D02*
X139668026Y-87031190D01*
X139668026Y-87031190D02*
X139715645Y-86840714D01*
X139715645Y-86840714D02*
X139763264Y-86745476D01*
X139763264Y-86745476D02*
X139858502Y-86650238D01*
X139858502Y-86650238D02*
X140001359Y-86602619D01*
X140001359Y-86602619D02*
X140096597Y-86602619D01*
X140096597Y-86602619D02*
X140239454Y-86650238D01*
X140239454Y-86650238D02*
X140287073Y-86697857D01*
X140668026Y-86697857D02*
X140715645Y-86650238D01*
X140715645Y-86650238D02*
X140810883Y-86602619D01*
X140810883Y-86602619D02*
X141048978Y-86602619D01*
X141048978Y-86602619D02*
X141144216Y-86650238D01*
X141144216Y-86650238D02*
X141191835Y-86697857D01*
X141191835Y-86697857D02*
X141239454Y-86793095D01*
X141239454Y-86793095D02*
X141239454Y-86888333D01*
X141239454Y-86888333D02*
X141191835Y-87031190D01*
X141191835Y-87031190D02*
X140620407Y-87602619D01*
X140620407Y-87602619D02*
X141239454Y-87602619D01*
%TO.C,R1*%
X149693333Y-106252619D02*
X149360000Y-105776428D01*
X149121905Y-106252619D02*
X149121905Y-105252619D01*
X149121905Y-105252619D02*
X149502857Y-105252619D01*
X149502857Y-105252619D02*
X149598095Y-105300238D01*
X149598095Y-105300238D02*
X149645714Y-105347857D01*
X149645714Y-105347857D02*
X149693333Y-105443095D01*
X149693333Y-105443095D02*
X149693333Y-105585952D01*
X149693333Y-105585952D02*
X149645714Y-105681190D01*
X149645714Y-105681190D02*
X149598095Y-105728809D01*
X149598095Y-105728809D02*
X149502857Y-105776428D01*
X149502857Y-105776428D02*
X149121905Y-105776428D01*
X150645714Y-106252619D02*
X150074286Y-106252619D01*
X150360000Y-106252619D02*
X150360000Y-105252619D01*
X150360000Y-105252619D02*
X150264762Y-105395476D01*
X150264762Y-105395476D02*
X150169524Y-105490714D01*
X150169524Y-105490714D02*
X150074286Y-105538333D01*
%TO.C,J1*%
X154606666Y-101062619D02*
X154606666Y-101776904D01*
X154606666Y-101776904D02*
X154559047Y-101919761D01*
X154559047Y-101919761D02*
X154463809Y-102015000D01*
X154463809Y-102015000D02*
X154320952Y-102062619D01*
X154320952Y-102062619D02*
X154225714Y-102062619D01*
X155606666Y-102062619D02*
X155035238Y-102062619D01*
X155320952Y-102062619D02*
X155320952Y-101062619D01*
X155320952Y-101062619D02*
X155225714Y-101205476D01*
X155225714Y-101205476D02*
X155130476Y-101300714D01*
X155130476Y-101300714D02*
X155035238Y-101348333D01*
%TO.C,R2*%
X130883811Y-94747858D02*
X130407620Y-95081191D01*
X130883811Y-95319286D02*
X129883811Y-95319286D01*
X129883811Y-95319286D02*
X129883811Y-94938334D01*
X129883811Y-94938334D02*
X129931430Y-94843096D01*
X129931430Y-94843096D02*
X129979049Y-94795477D01*
X129979049Y-94795477D02*
X130074287Y-94747858D01*
X130074287Y-94747858D02*
X130217144Y-94747858D01*
X130217144Y-94747858D02*
X130312382Y-94795477D01*
X130312382Y-94795477D02*
X130360001Y-94843096D01*
X130360001Y-94843096D02*
X130407620Y-94938334D01*
X130407620Y-94938334D02*
X130407620Y-95319286D01*
X129979049Y-94366905D02*
X129931430Y-94319286D01*
X129931430Y-94319286D02*
X129883811Y-94224048D01*
X129883811Y-94224048D02*
X129883811Y-93985953D01*
X129883811Y-93985953D02*
X129931430Y-93890715D01*
X129931430Y-93890715D02*
X129979049Y-93843096D01*
X129979049Y-93843096D02*
X130074287Y-93795477D01*
X130074287Y-93795477D02*
X130169525Y-93795477D01*
X130169525Y-93795477D02*
X130312382Y-93843096D01*
X130312382Y-93843096D02*
X130883811Y-94414524D01*
X130883811Y-94414524D02*
X130883811Y-93795477D01*
%TO.C,D2*%
X134986905Y-87562619D02*
X134986905Y-86562619D01*
X134986905Y-86562619D02*
X135225000Y-86562619D01*
X135225000Y-86562619D02*
X135367857Y-86610238D01*
X135367857Y-86610238D02*
X135463095Y-86705476D01*
X135463095Y-86705476D02*
X135510714Y-86800714D01*
X135510714Y-86800714D02*
X135558333Y-86991190D01*
X135558333Y-86991190D02*
X135558333Y-87134047D01*
X135558333Y-87134047D02*
X135510714Y-87324523D01*
X135510714Y-87324523D02*
X135463095Y-87419761D01*
X135463095Y-87419761D02*
X135367857Y-87515000D01*
X135367857Y-87515000D02*
X135225000Y-87562619D01*
X135225000Y-87562619D02*
X134986905Y-87562619D01*
X135939286Y-86657857D02*
X135986905Y-86610238D01*
X135986905Y-86610238D02*
X136082143Y-86562619D01*
X136082143Y-86562619D02*
X136320238Y-86562619D01*
X136320238Y-86562619D02*
X136415476Y-86610238D01*
X136415476Y-86610238D02*
X136463095Y-86657857D01*
X136463095Y-86657857D02*
X136510714Y-86753095D01*
X136510714Y-86753095D02*
X136510714Y-86848333D01*
X136510714Y-86848333D02*
X136463095Y-86991190D01*
X136463095Y-86991190D02*
X135891667Y-87562619D01*
X135891667Y-87562619D02*
X136510714Y-87562619D01*
%TO.C,D1*%
X130437619Y-97258094D02*
X129437619Y-97258094D01*
X129437619Y-97258094D02*
X129437619Y-97019999D01*
X129437619Y-97019999D02*
X129485238Y-96877142D01*
X129485238Y-96877142D02*
X129580476Y-96781904D01*
X129580476Y-96781904D02*
X129675714Y-96734285D01*
X129675714Y-96734285D02*
X129866190Y-96686666D01*
X129866190Y-96686666D02*
X130009047Y-96686666D01*
X130009047Y-96686666D02*
X130199523Y-96734285D01*
X130199523Y-96734285D02*
X130294761Y-96781904D01*
X130294761Y-96781904D02*
X130390000Y-96877142D01*
X130390000Y-96877142D02*
X130437619Y-97019999D01*
X130437619Y-97019999D02*
X130437619Y-97258094D01*
X130437619Y-95734285D02*
X130437619Y-96305713D01*
X130437619Y-96019999D02*
X129437619Y-96019999D01*
X129437619Y-96019999D02*
X129580476Y-96115237D01*
X129580476Y-96115237D02*
X129675714Y-96210475D01*
X129675714Y-96210475D02*
X129723333Y-96305713D01*
%TO.C,R3*%
X127062619Y-90520794D02*
X126586428Y-90854127D01*
X127062619Y-91092222D02*
X126062619Y-91092222D01*
X126062619Y-91092222D02*
X126062619Y-90711270D01*
X126062619Y-90711270D02*
X126110238Y-90616032D01*
X126110238Y-90616032D02*
X126157857Y-90568413D01*
X126157857Y-90568413D02*
X126253095Y-90520794D01*
X126253095Y-90520794D02*
X126395952Y-90520794D01*
X126395952Y-90520794D02*
X126491190Y-90568413D01*
X126491190Y-90568413D02*
X126538809Y-90616032D01*
X126538809Y-90616032D02*
X126586428Y-90711270D01*
X126586428Y-90711270D02*
X126586428Y-91092222D01*
X126062619Y-90187460D02*
X126062619Y-89568413D01*
X126062619Y-89568413D02*
X126443571Y-89901746D01*
X126443571Y-89901746D02*
X126443571Y-89758889D01*
X126443571Y-89758889D02*
X126491190Y-89663651D01*
X126491190Y-89663651D02*
X126538809Y-89616032D01*
X126538809Y-89616032D02*
X126634047Y-89568413D01*
X126634047Y-89568413D02*
X126872142Y-89568413D01*
X126872142Y-89568413D02*
X126967380Y-89616032D01*
X126967380Y-89616032D02*
X127015000Y-89663651D01*
X127015000Y-89663651D02*
X127062619Y-89758889D01*
X127062619Y-89758889D02*
X127062619Y-90044603D01*
X127062619Y-90044603D02*
X127015000Y-90139841D01*
X127015000Y-90139841D02*
X126967380Y-90187460D01*
%TO.C,R4*%
X128692141Y-84177619D02*
X128358808Y-83701428D01*
X128120713Y-84177619D02*
X128120713Y-83177619D01*
X128120713Y-83177619D02*
X128501665Y-83177619D01*
X128501665Y-83177619D02*
X128596903Y-83225238D01*
X128596903Y-83225238D02*
X128644522Y-83272857D01*
X128644522Y-83272857D02*
X128692141Y-83368095D01*
X128692141Y-83368095D02*
X128692141Y-83510952D01*
X128692141Y-83510952D02*
X128644522Y-83606190D01*
X128644522Y-83606190D02*
X128596903Y-83653809D01*
X128596903Y-83653809D02*
X128501665Y-83701428D01*
X128501665Y-83701428D02*
X128120713Y-83701428D01*
X129549284Y-83510952D02*
X129549284Y-84177619D01*
X129311189Y-83130000D02*
X129073094Y-83844285D01*
X129073094Y-83844285D02*
X129692141Y-83844285D01*
%TO.C,C1*%
X143397380Y-90169166D02*
X143445000Y-90216785D01*
X143445000Y-90216785D02*
X143492619Y-90359642D01*
X143492619Y-90359642D02*
X143492619Y-90454880D01*
X143492619Y-90454880D02*
X143445000Y-90597737D01*
X143445000Y-90597737D02*
X143349761Y-90692975D01*
X143349761Y-90692975D02*
X143254523Y-90740594D01*
X143254523Y-90740594D02*
X143064047Y-90788213D01*
X143064047Y-90788213D02*
X142921190Y-90788213D01*
X142921190Y-90788213D02*
X142730714Y-90740594D01*
X142730714Y-90740594D02*
X142635476Y-90692975D01*
X142635476Y-90692975D02*
X142540238Y-90597737D01*
X142540238Y-90597737D02*
X142492619Y-90454880D01*
X142492619Y-90454880D02*
X142492619Y-90359642D01*
X142492619Y-90359642D02*
X142540238Y-90216785D01*
X142540238Y-90216785D02*
X142587857Y-90169166D01*
X143492619Y-89216785D02*
X143492619Y-89788213D01*
X143492619Y-89502499D02*
X142492619Y-89502499D01*
X142492619Y-89502499D02*
X142635476Y-89597737D01*
X142635476Y-89597737D02*
X142730714Y-89692975D01*
X142730714Y-89692975D02*
X142778333Y-89788213D01*
%TO.C,U1*%
X138020595Y-99382619D02*
X138020595Y-100192142D01*
X138020595Y-100192142D02*
X138068214Y-100287380D01*
X138068214Y-100287380D02*
X138115833Y-100335000D01*
X138115833Y-100335000D02*
X138211071Y-100382619D01*
X138211071Y-100382619D02*
X138401547Y-100382619D01*
X138401547Y-100382619D02*
X138496785Y-100335000D01*
X138496785Y-100335000D02*
X138544404Y-100287380D01*
X138544404Y-100287380D02*
X138592023Y-100192142D01*
X138592023Y-100192142D02*
X138592023Y-99382619D01*
X139592023Y-100382619D02*
X139020595Y-100382619D01*
X139306309Y-100382619D02*
X139306309Y-99382619D01*
X139306309Y-99382619D02*
X139211071Y-99525476D01*
X139211071Y-99525476D02*
X139115833Y-99620714D01*
X139115833Y-99620714D02*
X139020595Y-99668333D01*
D12*
%TO.C,C2*%
X140714992Y-86195000D02*
X140192488Y-86195000D01*
X140714992Y-84725000D02*
X140192488Y-84725000D01*
%TO.C,R1*%
X150087064Y-104875000D02*
X149632936Y-104875000D01*
X150087064Y-103405000D02*
X149632936Y-103405000D01*
%TO.C,J1*%
X149860000Y-92710000D02*
X149860000Y-100330000D01*
X149860000Y-93980000D02*
X160020000Y-93980000D01*
X149860000Y-100330000D02*
X160020000Y-100330000D01*
X160020000Y-92710000D02*
X149860000Y-92710000D01*
X160020000Y-100330000D02*
X160020000Y-92710000D01*
%TO.C,R2*%
X131336192Y-94808256D02*
X131336192Y-94354128D01*
X132806192Y-94808256D02*
X132806192Y-94354128D01*
%TO.C,D2*%
X138185000Y-86415000D02*
X138185000Y-84145000D01*
X138185000Y-84145000D02*
X134125000Y-84145000D01*
X134125000Y-86415000D02*
X138185000Y-86415000D01*
%TO.C,D1*%
X129290000Y-94060000D02*
X127020000Y-94060000D01*
X127020000Y-94060000D02*
X127020000Y-98120000D01*
X129290000Y-98120000D02*
X129290000Y-94060000D01*
%TO.C,R3*%
X127515000Y-90581192D02*
X127515000Y-90127064D01*
X128985000Y-90581192D02*
X128985000Y-90127064D01*
%TO.C,R4*%
X128631744Y-84630000D02*
X129085872Y-84630000D01*
X128631744Y-86100000D02*
X129085872Y-86100000D01*
%TO.C,C1*%
X143845000Y-92487500D02*
X145715000Y-92487500D01*
X145715000Y-92487500D02*
X145715000Y-88402500D01*
X143845000Y-88402500D02*
X143845000Y-92487500D01*
%TO.C,U1*%
X138782500Y-99080000D02*
X142232500Y-99080000D01*
X138782500Y-99080000D02*
X136832500Y-99080000D01*
X138782500Y-93960000D02*
X140732500Y-93960000D01*
X138782500Y-93960000D02*
X136832500Y-93960000D01*
%TD*%
M02*
